<?xml version="1.0" encoding="utf-8"?>
<!-- Generator: Adobe Illustrator 16.0.0, SVG Export Plug-In . SVG Version: 6.00 Build 0)  -->
<!DOCTYPE svg PUBLIC "-//W3C//DTD SVG 1.1 Tiny//EN" "http://www.w3.org/Graphics/SVG/1.1/DTD/svg11-tiny.dtd">
<svg version="1.1" baseProfile="tiny" id="Layer_1" xmlns="http://www.w3.org/2000/svg" xmlns:xlink="http://www.w3.org/1999/xlink"
	 x="0px" y="0px" width="39.416px" height="40px" viewBox="0 0 39.416 40" xml:space="preserve">
<g>
	<path fill="#070707" d="M27.459,17.996c-2.54,0-2.894,2.572-2.894,2.572h5.4C29.966,20.568,30,17.996,27.459,17.996z"/>
	<path fill="#070707" d="M15.205,20.568h-4.787v4.459h4.239c0.07,0,0.179,0.003,0.305,0c0.682-0.016,1.976-0.215,1.976-2.168
		C16.938,20.545,15.205,20.568,15.205,20.568z"/>
	<path fill="#070707" d="M19.708,0C8.824,0,0,8.954,0,19.999C0,31.045,8.824,40,19.708,40c10.883,0,19.707-8.955,19.707-20.001
		C39.416,8.954,30.592,0,19.708,0z M23.856,12.289h6.785v2.056h-6.785V12.289z M20.429,23.068c0,5.094-5.224,4.926-5.224,4.926
		h-4.787h-0.14h-3.63V11.306h3.629h0.14h4.787c2.601,0,4.652,1.457,4.652,4.442c0,2.986-2.508,3.176-2.508,3.176
		C20.655,18.925,20.429,23.068,20.429,23.068z M33.119,22.795h-8.521c0,3.102,2.893,2.905,2.893,2.905
		c2.732,0,2.637-1.795,2.637-1.795h2.896c0,4.765-5.629,4.438-5.629,4.438c-6.752,0-6.317-6.379-6.317-6.379
		s-0.005-6.412,6.317-6.412C34.051,15.552,33.119,22.795,33.119,22.795z"/>
	<path fill="#070707" d="M16.367,16.007c0-1.736-1.163-1.736-1.163-1.736h-0.616h-4.171v3.724h4.489
		C15.685,17.996,16.367,17.744,16.367,16.007z"/>
</g>
</svg>
