<?xml version="1.0" encoding="utf-8"?>
<!-- Generator: Adobe Illustrator 16.0.0, SVG Export Plug-In . SVG Version: 6.00 Build 0)  -->
<!DOCTYPE svg PUBLIC "-//W3C//DTD SVG 1.1//EN" "http://www.w3.org/Graphics/SVG/1.1/DTD/svg11.dtd">
<svg version="1.1" id="Layer_1" xmlns="http://www.w3.org/2000/svg" xmlns:xlink="http://www.w3.org/1999/xlink" x="0px" y="0px"
	 width="27.564px" height="27.868px" viewBox="0 0 27.564 27.868" enable-background="new 0 0 27.564 27.868" xml:space="preserve">
<path fill-rule="evenodd" clip-rule="evenodd" fill="#FFFFFF" d="M27.284,11.128c-0.181-0.895-0.452-1.776-0.804-2.618
	c-0.346-0.828-0.773-1.624-1.271-2.367c-0.493-0.737-1.059-1.431-1.682-2.061c-0.624-0.631-1.31-1.204-2.039-1.701
	c-0.736-0.504-1.525-0.936-2.341-1.286c-0.833-0.355-1.704-0.63-2.59-0.812C15.65,0.096,14.716,0,13.783,0
	c-0.934,0-1.868,0.096-2.776,0.284c-0.886,0.182-1.757,0.457-2.59,0.812c-0.816,0.35-1.605,0.782-2.342,1.286
	C5.346,2.879,4.66,3.451,4.036,4.083C3.413,4.712,2.848,5.406,2.355,6.143C1.857,6.887,1.43,7.683,1.084,8.51
	c-0.352,0.842-0.623,1.724-0.804,2.618C0.094,12.045,0,12.99,0,13.933c0,0.945,0.094,1.89,0.28,2.807
	c0.182,0.895,0.452,1.777,0.804,2.618c0.346,0.826,0.773,1.625,1.271,2.369c0.493,0.737,1.058,1.43,1.681,2.06
	c0.624,0.63,1.31,1.201,2.039,1.7c0.736,0.503,1.525,0.936,2.342,1.285c0.833,0.357,1.704,0.629,2.59,0.812
	c0.908,0.189,1.842,0.284,2.776,0.284c0.933,0,1.867-0.095,2.775-0.284c0.886-0.184,1.757-0.456,2.59-0.812
	c0.816-0.349,1.605-0.781,2.341-1.285c0.729-0.499,1.416-1.07,2.039-1.7c0.623-0.63,1.189-1.323,1.682-2.06
	c0.498-0.744,0.925-1.542,1.271-2.369c0.352-0.841,0.623-1.723,0.804-2.618c0.186-0.917,0.28-1.862,0.28-2.807
	C27.564,12.99,27.47,12.045,27.284,11.128z M25.549,13.815c-0.17-0.038-4.154-0.904-8.198-0.39
	c-0.083-0.203-0.167-0.408-0.253-0.614c-0.245-0.583-0.509-1.159-0.782-1.727c4.648-1.917,6.535-4.676,6.557-4.709
	C24.523,8.402,25.521,10.991,25.549,13.815z M21.556,5.003c-0.028,0.046-1.705,2.626-6.147,4.309
	c-2.012-3.737-4.223-6.706-4.399-6.942c0.89-0.218,1.817-0.336,2.774-0.336C16.763,2.034,19.482,3.157,21.556,5.003z M10.963,2.38
	c0,0.001-0.002,0.002-0.002,0.002s-0.013,0.003-0.035,0.008C10.938,2.387,10.951,2.385,10.963,2.38z M8.761,3.171
	c0.156,0.212,2.333,3.196,4.37,6.857c-5.651,1.518-10.556,1.458-10.867,1.453C3.029,7.795,5.478,4.74,8.761,3.171z M2.013,13.933
	c0-0.127,0.005-0.251,0.009-0.375c0.208,0.005,6.023,0.138,12.084-1.696c0.337,0.667,0.659,1.346,0.955,2.022
	c-0.156,0.044-0.31,0.092-0.463,0.142c-6.352,2.075-9.574,7.854-9.574,7.854s0.004,0.003,0.004,0.006
	C3.153,19.778,2.013,16.99,2.013,13.933z M13.783,25.834c-2.85,0-5.461-1.024-7.498-2.728c0.155,0.127,0.264,0.208,0.264,0.208
	s2.256-4.975,9.237-7.433c0.025-0.01,0.052-0.018,0.078-0.025c1.656,4.351,2.34,7.994,2.515,9.035
	C16.966,25.498,15.412,25.834,13.783,25.834z M20.359,23.804c-0.12-0.719-0.747-4.211-2.291-8.5c3.8-0.615,7.093,0.438,7.335,0.519
	C24.88,19.14,23.002,21.999,20.359,23.804z"/>
</svg>
