<?xml version="1.0" encoding="utf-8"?>
<!-- Generator: Adobe Illustrator 16.0.0, SVG Export Plug-In . SVG Version: 6.00 Build 0)  -->
<!DOCTYPE svg PUBLIC "-//W3C//DTD SVG 1.1//EN" "http://www.w3.org/Graphics/SVG/1.1/DTD/svg11.dtd">
<svg version="1.1" id="Layer_1" xmlns="http://www.w3.org/2000/svg" xmlns:xlink="http://www.w3.org/1999/xlink" x="0px" y="0px"
	 width="39.416px" height="40px" viewBox="0 0 39.416 40" enable-background="new 0 0 39.416 40" xml:space="preserve">
<g>
	<path fill="#050505" d="M20.554,20.097c0.158-0.055,0.319-0.103,0.48-0.149c-0.307-0.705-0.641-1.41-0.991-2.108
		c-6.29,1.913-12.325,1.774-12.542,1.766c-0.003,0.133-0.01,0.262-0.01,0.395c0,3.187,1.184,6.089,3.13,8.285
		c-0.002-0.003-0.005-0.006-0.005-0.006S13.961,22.259,20.554,20.097z"/>
	<path fill="#050505" d="M19.031,15.932c-2.114-3.812-4.373-6.923-4.535-7.144c-3.407,1.633-5.95,4.818-6.742,8.657
		C8.076,17.448,13.167,17.514,19.031,15.932z"/>
	<path fill="#050505" d="M27.774,10.697c-2.15-1.924-4.975-3.092-8.067-3.092c-0.992,0-1.955,0.123-2.878,0.348
		c0.184,0.249,2.479,3.339,4.566,7.232C26.005,13.43,27.745,10.743,27.774,10.697z"/>
	<path fill="#050505" d="M16.783,7.965c-0.014,0.002-0.026,0.003-0.04,0.01c0.023-0.006,0.037-0.01,0.037-0.01H16.783z"/>
	<path fill="#050505" d="M12.199,29.773l0.003-0.006c-0.091-0.07-0.187-0.136-0.276-0.211
		C12.089,29.688,12.199,29.773,12.199,29.773z"/>
	<path fill="#050505" d="M22.336,17.031c0.284,0.592,0.558,1.193,0.812,1.797c0.09,0.217,0.178,0.429,0.264,0.643
		c4.197-0.537,8.332,0.366,8.508,0.402c-0.027-2.94-1.064-5.636-2.777-7.748C29.118,12.16,27.159,15.032,22.336,17.031z"/>
	<path fill="#050505" d="M21.786,22.027c-7.209,2.552-9.562,7.691-9.584,7.74c2.071,1.643,4.672,2.629,7.505,2.629
		c1.692,0,3.304-0.349,4.771-0.981c-0.182-1.083-0.891-4.88-2.609-9.413C21.84,22.011,21.813,22.02,21.786,22.027z"/>
	<path fill="#050505" d="M19.707,0C8.823,0,0,8.956,0,20c0,11.047,8.823,20,19.707,20c10.885,0,19.708-8.953,19.708-20
		C39.416,8.956,30.592,0,19.707,0z M32.888,25.65c-0.359,0.861-0.803,1.691-1.32,2.466c-0.512,0.77-1.1,1.491-1.746,2.147
		c-0.647,0.655-1.359,1.252-2.115,1.772c-0.766,0.522-1.583,0.974-2.432,1.339c-0.862,0.369-1.768,0.652-2.687,0.845
		c-0.942,0.197-1.911,0.298-2.881,0.298c-0.969,0-1.938-0.101-2.879-0.298c-0.92-0.19-1.825-0.476-2.688-0.845
		c-0.848-0.365-1.667-0.816-2.431-1.339c-0.756-0.521-1.468-1.117-2.115-1.772c-0.647-0.656-1.234-1.378-1.746-2.147
		c-0.516-0.774-0.96-1.604-1.319-2.466c-0.365-0.877-0.646-1.793-0.834-2.729c-0.192-0.957-0.29-1.938-0.29-2.922
		c0-0.983,0.098-1.967,0.29-2.922c0.189-0.935,0.47-1.853,0.834-2.729c0.359-0.861,0.804-1.693,1.319-2.467
		c0.511-0.77,1.099-1.49,1.746-2.148c0.647-0.655,1.359-1.25,2.115-1.771c0.764-0.524,1.583-0.976,2.431-1.341
		c0.864-0.37,1.768-0.655,2.688-0.845c0.941-0.195,1.911-0.295,2.879-0.295c0.97,0,1.938,0.1,2.881,0.295
		c0.919,0.19,1.824,0.475,2.687,0.845c0.85,0.365,1.668,0.816,2.432,1.341c0.756,0.521,1.468,1.115,2.115,1.771
		c0.646,0.658,1.234,1.378,1.746,2.148c0.518,0.774,0.961,1.606,1.32,2.467c0.364,0.876,0.645,1.794,0.832,2.729
		c0.193,0.955,0.293,1.938,0.293,2.922c0,0.984-0.099,1.966-0.293,2.922C33.532,23.857,33.252,24.773,32.888,25.65z"/>
	<path fill="#050505" d="M24.155,21.427c1.603,4.47,2.254,8.108,2.378,8.855c2.743-1.878,4.69-4.86,5.233-8.315
		C31.517,21.884,28.099,20.787,24.155,21.427z"/>
</g>
</svg>
