<?xml version="1.0" encoding="utf-8"?>
<!-- Generator: Adobe Illustrator 16.0.0, SVG Export Plug-In . SVG Version: 6.00 Build 0)  -->
<!DOCTYPE svg PUBLIC "-//W3C//DTD SVG 1.1//EN" "http://www.w3.org/Graphics/SVG/1.1/DTD/svg11.dtd">
<svg version="1.1" id="Layer_1" xmlns="http://www.w3.org/2000/svg" xmlns:xlink="http://www.w3.org/1999/xlink" x="0px" y="0px"
	 width="39.416px" height="40px" viewBox="0 0 39.416 40" enable-background="new 0 0 39.416 40" xml:space="preserve">
<path d="M19.707,0C8.823,0,0,8.957,0,20.001C0,31.047,8.823,40,19.707,40c10.885,0,19.708-8.953,19.708-19.999
	C39.416,8.957,30.592,0,19.707,0z M29.827,24.725v5.062h-0.002l0.002,0.458c-4.84,2.479-12.871,3.186-17.504,0.014
	c-2.806-1.921-5.572-5.74-5.421-10.572c0.144-4.588,3.074-8.695,7.105-10.763c4.636-2.38,11.633-1.929,15.709,1.498l-2.402,2.486
	l-1.558,0.449l0.827-1.526c-1.188-1.215-2.553-2.094-4.057-2.583c-2.396-0.776-4.608-0.347-6.45,0.569
	c-3.775,1.875-6.007,6.418-5.142,11.223c0.916,5.062,4.774,9.125,9.836,9.552c1.492,0.129,3.125,0.054,4.57-0.334
	c1.028-0.336,1.021-0.438,1.021-1.071v-4.459l-5.072,0.152l2.611-1.494h7.049L29.827,24.725z"/>
</svg>
