<?xml version="1.0" encoding="utf-8"?>
<!-- Generator: Adobe Illustrator 16.0.0, SVG Export Plug-In . SVG Version: 6.00 Build 0)  -->
<!DOCTYPE svg PUBLIC "-//W3C//DTD SVG 1.1//EN" "http://www.w3.org/Graphics/SVG/1.1/DTD/svg11.dtd">
<svg version="1.1" id="Layer_1" xmlns="http://www.w3.org/2000/svg" xmlns:xlink="http://www.w3.org/1999/xlink" x="0px" y="0px"
	 width="39.416px" height="40px" viewBox="0 0 39.416 40" enable-background="new 0 0 39.416 40" xml:space="preserve">
<g>
	<path fill="#FFFFFF" d="M19.708,0C8.824,0,0,8.955,0,20c0,11.047,8.824,20,19.708,20c10.883,0,19.707-8.953,19.707-20
		C39.416,8.955,30.592,0,19.708,0z M30.685,29.714c0,0.89-0.728,1.61-1.626,1.61h-18.74c-0.899,0-1.626-0.72-1.626-1.61v-19.24
		c0-0.888,0.727-1.61,1.626-1.61h18.74c0.898,0,1.626,0.722,1.626,1.61V29.714z"/>
	<path fill="#FFFFFF" d="M23.512,17.287c-1.763,0-2.552,0.982-2.995,1.674v0.033h-0.021c0.008-0.009,0.015-0.022,0.021-0.033v-1.436
		h-3.321c0.043,0.95,0,10.14,0,10.14h3.321v-5.663c0-0.304,0.022-0.604,0.11-0.822c0.241-0.604,0.788-1.234,1.705-1.234
		c1.203,0,1.683,0.931,1.683,2.293v5.425h3.321v-5.814C27.336,18.736,25.697,17.287,23.512,17.287z"/>
	<path fill="#FFFFFF" d="M13.719,12.635c-1.135,0-1.878,0.758-1.878,1.753c0,0.972,0.721,1.753,1.835,1.753h0.022
		c1.159,0,1.88-0.781,1.88-1.753C15.556,13.393,14.856,12.635,13.719,12.635z"/>
	<rect x="12.037" y="17.525" fill="#FFFFFF" width="3.322" height="10.14"/>
</g>
</svg>
