<?xml version="1.0" encoding="utf-8"?>
<!-- Generator: Adobe Illustrator 16.0.0, SVG Export Plug-In . SVG Version: 6.00 Build 0)  -->
<!DOCTYPE svg PUBLIC "-//W3C//DTD SVG 1.1//EN" "http://www.w3.org/Graphics/SVG/1.1/DTD/svg11.dtd">
<svg version="1.1" id="Layer_1" xmlns="http://www.w3.org/2000/svg" xmlns:xlink="http://www.w3.org/1999/xlink" x="0px" y="0px"
	 width="80px" height="80px" viewBox="0 0 80 80" enable-background="new 0 0 80 80" xml:space="preserve">
<ellipse cx="40.376" cy="39.5" rx="39.624" ry="38.5"/>
<polygon fill="#FFFFFF" points="34.068,30.285 34.068,21.351 32.235,21.697 "/>
<polygon fill="#6D6E70" points="34.068,31.074 34.068,22.096 32.518,22.096 "/>
<polyline fill="#FFFFFF" points="34.342,29.55 59.008,29.55 44.559,27.352 34.342,29.55 "/>
<polyline fill="#6D6E70" points="43.026,29.443 58.462,29.649 52.075,27.635 "/>
<line fill="#6D6E70" x1="52.075" y1="27.635" x2="43.026" y2="29.443"/>
<path fill="#FFFFFF" stroke="#3A53A3" stroke-width="5.1792" stroke-miterlimit="10" d="M36.683,28.58"/>
<path fill="#FFFFFF" stroke="#3A53A3" stroke-width="5.1792" stroke-miterlimit="10" d="M36.683,28.58"/>
<path fill="#FFFFFF" stroke="#3A53A3" stroke-width="0.4316" stroke-miterlimit="10" d="M53.223,36.517 M23.569,36.517
	 M53.228,36.577"/>
<path fill="#FFFFFF" stroke="#3A53A3" stroke-width="0.4316" stroke-miterlimit="10" d="M50.023,33.143"/>
<g>
	<g opacity="0.75">
		<path d="M58.658,59.676"/>
	</g>
	<g>
		<path fill="#FFFFFF" d="M55.637,56.655"/>
	</g>
</g>
<path fill="#FFFFFF" stroke="#3A53A3" stroke-width="5.1792" stroke-miterlimit="10" d="M36.625,25.475"/>
<path fill="#FFFFFF" stroke="#3A53A3" stroke-width="5.1792" stroke-miterlimit="10" d="M36.625,25.475"/>
<path fill="#FFFFFF" stroke="#3A53A3" stroke-width="0.4316" stroke-miterlimit="10" d="M55.539,34.551 M21.628,34.551
	 M55.544,34.621"/>
<path fill="#FFFFFF" stroke="#3A53A3" stroke-width="0.4316" stroke-miterlimit="10" d="M51.88,30.694"/>
<g>
	
		<image overflow="visible" opacity="0.75" width="53" height="63" xlink:href="48A10331E14A757F.png"  transform="matrix(1 0 0 1 20.5259 11.5259)">
	</image>
	<g>
		<path fill="#FFFFFF" d="M58.393,57.617L58.37,27.918l-0.234-5.378c0,0,0.864-1.297,4.864-0.32v-6.112c0,0-3.925-0.108-6.685,0.892
			h-0.031h-0.003h-0.298C53.223,16,49,16.108,49,16.108v6.112c4-0.978,5,0.259,5,0.259v0.061v1.101v6.928v20.055L34,23.479v-1.101
			v-0.061c0,0,1-1.236,5-0.258v-6.114c0,0-4.328,0.056-7.087,1.056h-0.299h-0.002h-0.032C28.819,16,24,15.944,24,15.944v6.114
			c4-0.978,5.363,0.319,5.363,0.319l0.149,6.698l-0.017,28.38c0,0-1.495,1.236-5.495,0.258v6.113c0,0,5.088,1.174,7.847-0.826h0.3
			h0.001h0.032c2.76,2,6.82,0.826,6.82,0.826v-6.113c-4,0.978-5-0.238-5-0.238V30.366l20,27.266v0.005c0,0-1,1.216-5,0.238v6.114
			c0,0,3.954,1.011,6.714-0.989h0.032h0.002h0.299C58.807,65,64,63.989,64,63.989v-6.114C60,58.854,58.393,57.617,58.393,57.617z"/>
	</g>
</g>
<g>
	
		<image overflow="visible" opacity="0.75" width="73" height="54" xlink:href="48A10331E14A757A.png"  transform="matrix(1 0 0 1 7.5259 16.5259)">
	</image>
	<g>
		<g>
			<path fill="#FFFFFF" d="M58.467,25.63L51.574,26h-0.559H18.267h-0.079c0,0-1.17-2-0.244-6h-5.783c0,0-1.161,4.587-0.161,7.406
				v0.306v0.001v0.033C11,30.566,12.161,35,12.161,35h5.783c-0.926-5,0.145-5.281,0.145-5.281L22,29.501V50.32L18.313,51h-0.078
				c0,0-1.18-3-0.247-6h-5.826c0,0-1.163,4.781-0.163,7.6v0.306v0.001v0.033C11,55.76,12.163,60,12.163,60h5.826
				c-0.933-4,0.199-5.184,0.199-5.184l33.007-0.086l0.049-0.022l7.161-0.095C65.856,54.43,70,49.837,70,40.186v0.119
				C70,30.651,65.919,25.904,58.467,25.63z M51.292,50.287l-0.132-0.02L26,50.312V29.496l24.947-0.028l0.75-0.006
				c12.931-0.471,13.945,2.56,13.962,10.527C65.639,47.979,64.243,50.76,51.292,50.287z"/>
		</g>
	</g>
</g>
<g>
	<g opacity="0.75">
		<path d="M61.319,60.602"/>
	</g>
	<g>
		<path fill="#FFFFFF" d="M58.298,57.581"/>
	</g>
</g>
<g>
	
		<image overflow="visible" opacity="0.75" width="29" height="63" xlink:href="48A10331E14A7579.png"  transform="matrix(1 0 0 1 20.5259 11.5259)">
	</image>
	<g>
		<path fill="#FFFFFF" d="M34,30.33v27.109c0,0,1,1.216,5,0.237v6.114c0,0-3.908,1.21-6.668-0.79H32.3h-0.002h-0.299
			C29.239,65,24,63.79,24,63.79v-6.114c4,0.979,5.612-0.258,5.612-0.258l0.033-28.379L29.39,22.34c0,0-1.39-1.297-5.39-0.318v-6.114
			c0,0,4.972-0.908,7.731,1.092h0.032h0.001h0.299C34.824,15,39,15.908,39,15.908v6.114c-4-0.979-5,0.258-5,0.258v0.061v1.1V30.33z"
			/>
	</g>
</g>
<polygon fill="#FFFFFF" points="34.051,30.578 34.051,21.573 32.135,23.434 "/>
</svg>
