<?xml version="1.0" encoding="utf-8"?>
<!-- Generator: Adobe Illustrator 16.0.0, SVG Export Plug-In . SVG Version: 6.00 Build 0)  -->
<!DOCTYPE svg PUBLIC "-//W3C//DTD SVG 1.1//EN" "http://www.w3.org/Graphics/SVG/1.1/DTD/svg11.dtd">
<svg version="1.1" id="Layer_1" xmlns="http://www.w3.org/2000/svg" xmlns:xlink="http://www.w3.org/1999/xlink" x="0px" y="0px"
	 width="70px" height="70px" viewBox="0 0 70 70" enable-background="new 0 0 70 70" xml:space="preserve">
<g>
	<rect x="-1" y="-1" width="72" height="72"/>
	<polygon fill="#FFFFFF" points="26.163,23.111 26.163,12.231 23.993,12.652 	"/>
	<polygon fill="#6D6E70" points="26.163,24.072 26.163,13.139 24.328,13.139 	"/>
	<polyline fill="#FFFFFF" points="26.486,22.216 55.672,22.216 38.575,19.539 26.486,22.216 	"/>
	<polyline fill="#6D6E70" points="36.762,22.086 55.026,22.338 47.469,19.884 	"/>
	<line fill="#6D6E70" x1="47.469" y1="19.884" x2="36.762" y2="22.086"/>
	<path fill="#FFFFFF" stroke="#3A53A3" stroke-width="6.2171" stroke-miterlimit="10" d="M29.257,21.035"/>
	<path fill="#FFFFFF" stroke="#3A53A3" stroke-width="6.2171" stroke-miterlimit="10" d="M29.257,21.035"/>
	<path fill="#FFFFFF" stroke="#3A53A3" stroke-width="0.5181" stroke-miterlimit="10" d="M48.827,30.7 M13.739,30.7 M48.833,30.774"
		/>
	<path fill="#FFFFFF" stroke="#3A53A3" stroke-width="0.5181" stroke-miterlimit="10" d="M45.042,26.592"/>
	<g>
		<g opacity="0.75">
			<path d="M55.31,58.852"/>
		</g>
		<g>
			<path fill="#FFFFFF" d="M51.683,55.225"/>
		</g>
	</g>
	<path fill="#FFFFFF" stroke="#3A53A3" stroke-width="6.2171" stroke-miterlimit="10" d="M29.188,17.254"/>
	<path fill="#FFFFFF" stroke="#3A53A3" stroke-width="6.2171" stroke-miterlimit="10" d="M29.188,17.254"/>
	<path fill="#FFFFFF" stroke="#3A53A3" stroke-width="0.5181" stroke-miterlimit="10" d="M51.567,28.307 M11.443,28.307
		 M51.573,28.392"/>
	<path fill="#FFFFFF" stroke="#3A53A3" stroke-width="0.5181" stroke-miterlimit="10" d="M47.238,23.61"/>
	<g>
		
			<image overflow="visible" opacity="0.5" width="63" height="76" xlink:href="7102FEE78F2BF942.png"  transform="matrix(1 0 0 1 10.2285 1.2285)">
		</image>
		<g>
			<path fill="#FFFFFF" d="M54.653,56.397l0.119-36.167l0.098-6.549c0,0,1.13-1.581,6.13-0.389V5.847C61,5.847,55.751,5,52.486,7
				h-0.038h-0.002h-0.354C48.827,5,44,5.847,44,5.847v7.444c4-1.191,6,0.314,6,0.314v0.075v1.34v8.438v24.422L26,14.822v-1.34
				v-0.074c0,0,1-1.506,6-0.314V5.648C32,5.648,26.877,5,23.611,7h-0.354h-0.002h-0.038C19.952,5,15,5.648,15,5.648v7.445
				c4-1.192,5.972,0.388,5.972,0.388l-0.012,8.157l0.261,34.56c0,0-2.221,1.506-6.221,0.314v7.445c0,0,5.268,1.042,8.534-0.958
				h0.354h0.002h0.038C27.194,65,32,63.958,32,63.958v-7.445c-5,1.192-6-0.289-6-0.289V23.21l24,33.204v0.007c0,0-2,1.481-6,0.29
				v7.445c0,0,4.509,0.844,7.775-1.156h0.038h0.003h0.354C55.435,65,61,64.156,61,64.156v-7.445
				C56,57.902,54.653,56.397,54.653,56.397z"/>
		</g>
	</g>
	<g>
		
			<image overflow="visible" opacity="0.75" width="85" height="66" xlink:href="7102FEE78F2BF941.png"  transform="matrix(1 0 0 1 -4.7715 5.2285)">
		</image>
		<g>
			<g>
				<path fill="#FFFFFF" d="M54.693,16.497L46.876,16h-0.661H7.465H7.372c0,0-1.384-1-0.289-6H0.24c0,0-1.24,6.172,0.76,9.606v0.373
					v0.002v0.04C-1,23.455,0.24,28,0.24,28h6.843c-1.095-5,0.229-6.004,0.229-6.004L12,22.157V47.51L7.52,48H7.427
					c0,0-1.395-2-0.292-7H0.242C0.242,41-1,46.853,1,50.286v0.373v0.002v0.041C-1,54.134,0.242,59,0.242,59h6.894
					c-1.103-4,0.235-6.164,0.235-6.164l39.057-0.03l0.058,0.008l8.133-0.096C63.436,52.497,68,46.923,68,35.169v-0.001
					C68,23.413,63.511,16.829,54.693,16.497z M46.542,47.47l-0.462-0.023L16,47.5v-25.35l29.825-0.036l1.041-0.006
					c15.301-0.574,16.58,3.118,16.599,12.82C63.442,44.659,61.866,48.046,46.542,47.47z"/>
			</g>
		</g>
	</g>
	<g>
		<g opacity="0.75">
			<path d="M58.459,59.979"/>
		</g>
		<g>
			<path fill="#FFFFFF" d="M54.833,56.352"/>
		</g>
	</g>
	<g>
		
			<image overflow="visible" opacity="0.5" width="34" height="75" xlink:href="7102FEE78F2BF94D.png"  transform="matrix(1 0 0 1 10.2285 1.2285)">
		</image>
		<g>
			<path fill="#FFFFFF" d="M26,23.166v33.013c0,0,1,1.48,6,0.289v7.445c0,0-4.627,1.087-7.893-0.913H24.07h-0.002h-0.354
				C20.448,65,15,63.913,15,63.913v-7.445c4,1.191,6.266-0.314,6.266-0.314l-0.149-34.56l-0.02-8.157c0,0-1.096-1.58-6.096-0.388
				V5.603C15,5.603,20.131,5,23.396,7h0.038h0.002h0.354C27.057,5,32,5.603,32,5.603v7.445c-4-1.191-6,0.314-6,0.314v0.074v1.34
				V23.166z"/>
		</g>
	</g>
	<polygon fill="#FFFFFF" points="26.141,23.468 26.141,12.502 23.875,14.768 	"/>
</g>
</svg>
